<svg version="1.1" xmlns:xlink="http://www.w3.org/1999/xlink" xmlns="http://www.w3.org/2000/svg" viewBox="0 327.24 958.9201349831271 213.84" id="visual" style="max-height: 500px" width="958.9201349831271" height="213.84"><path fill="#fa7268" d="M0 367L16 360.2C32 353.3 64 339.7 96 342C128 344.3 160 362.7 192 370C224 377.3 256 373.7 288 373.8C320 374 352 378 384 385.7C416 393.3 448 404.7 480 402.3C512 400 544 384 576 376.8C608 369.7 640 371.3 672 370.8C704 370.3 736 367.7 768 361.3C800 355 832 345 864 339.8C896 334.7 928 334.3 944 334.2L960 334L960 541L944 541C928 541 896 541 864 541C832 541 800 541 768 541C736 541 704 541 672 541C640 541 608 541 576 541C544 541 512 541 480 541C448 541 416 541 384 541C352 541 320 541 288 541C256 541 224 541 192 541C160 541 128 541 96 541C64 541 32 541 16 541L0 541Z" data-darkreader-inline-fill="" style="--darkreader-inline-fill: #5a1b17;"/><path fill="#e34c67" d="M0 435L16 430.2C32 425.3 64 415.7 96 420C128 424.3 160 442.7 192 446.3C224 450 256 439 288 426.5C320 414 352 400 384 393.5C416 387 448 388 480 398.2C512 408.3 544 427.7 576 439C608 450.3 640 453.7 672 452.8C704 452 736 447 768 439.8C800 432.7 832 423.3 864 416.2C896 409 928 404 944 401.5L960 399L960 541L944 541C928 541 896 541 864 541C832 541 800 541 768 541C736 541 704 541 672 541C640 541 608 541 576 541C544 541 512 541 480 541C448 541 416 541 384 541C352 541 320 541 288 541C256 541 224 541 192 541C160 541 128 541 96 541C64 541 32 541 16 541L0 541Z" data-darkreader-inline-fill="" style="--darkreader-inline-fill: #662632;"/><path fill="#c62368" d="M0 469L16 471C32 473 64 477 96 473.3C128 469.7 160 458.3 192 460.2C224 462 256 477 288 481.2C320 485.3 352 478.7 384 473.2C416 467.7 448 463.3 480 458.2C512 453 544 447 576 443.7C608 440.3 640 439.7 672 443.7C704 447.7 736 456.3 768 463.7C800 471 832 477 864 478.2C896 479.3 928 475.7 944 473.8L960 472L960 541L944 541C928 541 896 541 864 541C832 541 800 541 768 541C736 541 704 541 672 541C640 541 608 541 576 541C544 541 512 541 480 541C448 541 416 541 384 541C352 541 320 541 288 541C256 541 224 541 192 541C160 541 128 541 96 541C64 541 32 541 16 541L0 541Z" data-darkreader-inline-fill="" style="--darkreader-inline-fill: #6d2c47;"/></svg>