<svg id="visual" viewBox="0 0 960 540" width="960" height="540" xmlns="http://www.w3.org/2000/svg" xmlns:xlink="http://www.w3.org/1999/xlink" version="1.1"><path d="M0 171L16 177.8C32 184.7 64 198.3 96 196C128 193.7 160 175.3 192 168C224 160.7 256 164.3 288 164.2C320 164 352 160 384 152.3C416 144.7 448 133.3 480 135.7C512 138 544 154 576 161.2C608 168.3 640 166.7 672 167.2C704 167.7 736 170.3 768 176.7C800 183 832 193 864 198.2C896 203.3 928 203.7 944 203.8L960 204L960 0L944 0C928 0 896 0 864 0C832 0 800 0 768 0C736 0 704 0 672 0C640 0 608 0 576 0C544 0 512 0 480 0C448 0 416 0 384 0C352 0 320 0 288 0C256 0 224 0 192 0C160 0 128 0 96 0C64 0 32 0 16 0L0 0Z" fill="#fa7268"></path><path d="M0 103L16 107.8C32 112.7 64 122.3 96 118C128 113.7 160 95.3 192 91.7C224 88 256 99 288 111.5C320 124 352 138 384 144.5C416 151 448 150 480 139.8C512 129.7 544 110.3 576 99C608 87.7 640 84.3 672 85.2C704 86 736 91 768 98.2C800 105.3 832 114.7 864 121.8C896 129 928 134 944 136.5L960 139L960 0L944 0C928 0 896 0 864 0C832 0 800 0 768 0C736 0 704 0 672 0C640 0 608 0 576 0C544 0 512 0 480 0C448 0 416 0 384 0C352 0 320 0 288 0C256 0 224 0 192 0C160 0 128 0 96 0C64 0 32 0 16 0L0 0Z" fill="#e34c67"></path><path d="M0 69L16 67C32 65 64 61 96 64.7C128 68.3 160 79.7 192 77.8C224 76 256 61 288 56.8C320 52.7 352 59.3 384 64.8C416 70.3 448 74.7 480 79.8C512 85 544 91 576 94.3C608 97.7 640 98.3 672 94.3C704 90.3 736 81.7 768 74.3C800 67 832 61 864 59.8C896 58.7 928 62.3 944 64.2L960 66L960 0L944 0C928 0 896 0 864 0C832 0 800 0 768 0C736 0 704 0 672 0C640 0 608 0 576 0C544 0 512 0 480 0C448 0 416 0 384 0C352 0 320 0 288 0C256 0 224 0 192 0C160 0 128 0 96 0C64 0 32 0 16 0L0 0Z" fill="#c62368"></path></svg>