<svg version="1.1" xmlns:xlink="http://www.w3.org/1999/xlink" xmlns="http://www.w3.org/2000/svg" viewBox="0 0 897.5999999999999 222" id="visual" style="max-height: 500px" width="897.5999999999999" height="222"><path fill="#fa7268" d="M0 210L15 210.7C30 211.3 60 212.7 90 204.7C120 196.7 150 179.3 180 167.8C210 156.3 240 150.7 270 151.2C300 151.7 330 158.3 360 168.7C390 179 420 193 450 198C480 203 510 199 540 196.2C570 193.3 600 191.7 630 195.2C660 198.7 690 207.3 720 196.7C750 186 780 156 810 142.8C840 129.7 870 133.3 885 135.2L900 137L900 0L885 0C870 0 840 0 810 0C780 0 750 0 720 0C690 0 660 0 630 0C600 0 570 0 540 0C510 0 480 0 450 0C420 0 390 0 360 0C330 0 300 0 270 0C240 0 210 0 180 0C150 0 120 0 90 0C60 0 30 0 15 0L0 0Z" data-darkreader-inline-fill="" style="--darkreader-inline-fill: #5a1b17;"/><path fill="#e34c67" d="M0 185L15 171C30 157 60 129 90 124.5C120 120 150 139 180 148.8C210 158.7 240 159.3 270 161.3C300 163.3 330 166.7 360 158.3C390 150 420 130 450 122.7C480 115.3 510 120.7 540 121.8C570 123 600 120 630 127C660 134 690 151 720 148.5C750 146 780 124 810 120.8C840 117.7 870 133.3 885 141.2L900 149L900 0L885 0C870 0 840 0 810 0C780 0 750 0 720 0C690 0 660 0 630 0C600 0 570 0 540 0C510 0 480 0 450 0C420 0 390 0 360 0C330 0 300 0 270 0C240 0 210 0 180 0C150 0 120 0 90 0C60 0 30 0 15 0L0 0Z" data-darkreader-inline-fill="" style="--darkreader-inline-fill: #662632;"/><path fill="#c62368" d="M0 80L15 78C30 76 60 72 90 65.5C120 59 150 50 180 44.5C210 39 240 37 270 41.3C300 45.7 330 56.3 360 68.2C390 80 420 93 450 93.5C480 94 510 82 540 81.3C570 80.7 600 91.3 630 84.8C660 78.3 690 54.7 720 54.8C750 55 780 79 810 92.7C840 106.3 870 109.7 885 111.3L900 113L900 0L885 0C870 0 840 0 810 0C780 0 750 0 720 0C690 0 660 0 630 0C600 0 570 0 540 0C510 0 480 0 450 0C420 0 390 0 360 0C330 0 300 0 270 0C240 0 210 0 180 0C150 0 120 0 90 0C60 0 30 0 15 0L0 0Z" data-darkreader-inline-fill="" style="--darkreader-inline-fill: #6d2c47;"/></svg>